# xmcd CD database file
#
# Track frame offsets:
#	150
#	21135
#	38237
#	55845
#	73012
#	89467
#	105167
#	126292
#	146242
#	165845
#	181352
#	200382
#	219212
#	234665
#
# Disc length: 3662 seconds
#
# Revision: 1
# Processed by: cddbd v1.4PL0 Copyright (c) Steve Scherf et al.
# Submitted via: CDex 1.50beta9
#
DISCID=bc0e4c0e
DTITLE=Long John Baldry - A Thrills a Thrill - Disk 2
DYEAR=1995
DGENRE=Folk/Rock
TTITLE0=Passing Glances
TTITLE1=Rock with the Best
TTITLE2=It Ain't Easy
TTITLE3=25 Years of Pain
TTITLE4=Stay the Way Yoy Are
TTITLE5=Bad Attitude
TTITLE6=Let the Heartaches Stop
TTITLE7=Ain't No Love in the Heart of the City
TTITLE8=This Is Japan
TTITLE9=The Sun Ain't Gonna Shine Anymore
TTITLE10=Here Comes Another Fool
TTITLE11=It Still Ain't Easy
TTITLE12=Midnight in New Orleans
TTITLE13=Don't Try to Lay No Boogie Woogie
EXTD=YEAR: 1995
EXTT0=
EXTT1=
EXTT2=
EXTT3=
EXTT4=
EXTT5=
EXTT6=
EXTT7=
EXTT8=
EXTT9=
EXTT10=
EXTT11=
EXTT12=
EXTT13=
PLAYORDER=
